<?xml version="1.0" encoding="iso-8859-1"?>
<!-- Generator: Adobe Illustrator 25.2.1, SVG Export Plug-In . SVG Version: 6.00 Build 0)  -->
<svg version="1.1" id="&#x421;&#x43B;&#x43E;&#x439;_1"
	 xmlns="http://www.w3.org/2000/svg" xmlns:xlink="http://www.w3.org/1999/xlink" x="0px" y="0px" viewBox="0 0 100 100"
	 style="enable-background:new 0 0 100 100;" xml:space="preserve">
<g>
	<circle style="fill:#EE3E54;" cx="14" cy="26" r="2"/>
</g>
<g>
	<circle style="fill:#FBCD59;" cx="17" cy="78" r="4"/>
</g>
<g>
	<circle style="fill:#EE3E54;" cx="24" cy="83" r="2"/>
</g>
<g>
	<circle style="fill:#FFFFFF;" cx="64.483" cy="78.517" r="2.483"/>
</g>
<g>
	<circle style="fill:#FFFFFF;" cx="16" cy="48" r="1"/>
</g>
<g>
	<g>
		<circle style="fill:#F1BC19;" cx="78" cy="14" r="1"/>
	</g>
	<g>
		<circle style="fill:#F9DBD2;" cx="50" cy="50" r="38"/>
	</g>
	<g>
		<circle style="fill:#F1BC19;" cx="84" cy="16" r="4"/>
	</g>
	<g>
		<circle style="fill:#FBCD59;" cx="78" cy="77" r="2"/>
	</g>
	<g>
		<circle style="fill:#F1BC19;" cx="86" cy="31" r="1"/>
	</g>
	<g>
		<circle style="fill:#FFFFFF;" cx="84" cy="45" r="2"/>
	</g>
	<g>
		<path style="fill:#EDF7F5;" d="M70.797,29.086l0.009-0.009c-0.047-0.046-0.1-0.087-0.149-0.132
			c-0.008-0.007-0.015-0.016-0.022-0.023l-0.001,0.001C69.338,27.733,67.617,27,65.719,27h-7.008h-0.326H45.143h-0.93h-9.932
			C30.26,27,27,30.26,27,34.281v9.932v0.93v13.242v0.326v7.008c0,1.898,0.734,3.618,1.923,4.914l-0.002,0.002
			c0.01,0.011,0.021,0.02,0.031,0.031c0.043,0.046,0.081,0.095,0.125,0.14l0.009-0.009C30.407,72.15,32.24,73,34.281,73h6.447h0.326
			h13.448h0.724h10.493C69.74,73,73,69.74,73,65.719V55.226v-0.724V41.054v-0.326v-6.447C73,32.24,72.15,30.407,70.797,29.086z"/>
	</g>
	<g>
		<path style="fill:#472B29;" d="M53.734,69.5c0,0.276,0.224,0.5,0.5,0.5h10.433C67.607,70,70,67.607,70,64.667v-14
			c0-0.276-0.224-0.5-0.5-0.5s-0.5,0.224-0.5,0.5v14C69,67.057,67.056,69,64.667,69H54.234C53.958,69,53.734,69.224,53.734,69.5z"/>
	</g>
	<g>
		<path style="fill:#472B29;" d="M30,58.417v6.25C30,67.607,32.393,70,35.333,70h8.816c0.276,0,0.5-0.224,0.5-0.5
			s-0.224-0.5-0.5-0.5h-8.816C32.944,69,31,67.057,31,64.667v-6.25c0-0.276-0.224-0.5-0.5-0.5S30,58.141,30,58.417z"/>
	</g>
	<g>
		<path style="fill:#472B29;" d="M30,35.333v19.75c0,0.276,0.224,0.5,0.5,0.5s0.5-0.224,0.5-0.5v-19.75
			C31,32.943,32.944,31,35.333,31H46c0.276,0,0.5-0.224,0.5-0.5S46.276,30,46,30H35.333C32.393,30,30,32.393,30,35.333z"/>
	</g>
	<g>
		<path style="fill:#472B29;" d="M57.628,30.5c0,0.276,0.224,0.5,0.5,0.5h6.539C67.056,31,69,32.943,69,35.333v2.75
			c0,0.276,0.224,0.5,0.5,0.5s0.5-0.224,0.5-0.5v-2.75C70,32.393,67.607,30,64.667,30h-6.539C57.852,30,57.628,30.224,57.628,30.5z"
			/>
	</g>
	<g>
		<path style="fill:#472B29;" d="M69,41.5v6.25c0,0.276,0.224,0.5,0.5,0.5s0.5-0.224,0.5-0.5V41.5c0-0.276-0.224-0.5-0.5-0.5
			S69,41.224,69,41.5z"/>
	</g>
	<g>
		<g>
			<path style="fill:#472B29;" d="M65.917,74H34.079c-4.457,0-8.083-3.623-8.083-8.078V34.103c0-4.454,3.626-8.078,8.083-8.078
				h31.838c4.457,0,8.083,3.623,8.083,8.078v31.819C74,70.377,70.374,74,65.917,74z M34.079,27.442
				c-3.675,0-6.665,2.988-6.665,6.661v31.819c0,3.673,2.99,6.661,6.665,6.661h31.838c3.675,0,6.665-2.988,6.665-6.661V34.103
				c0-3.673-2.99-6.661-6.665-6.661L34.079,27.442z"/>
		</g>
	</g>
</g>
<g>
	<path style="fill:#218AF2;" d="M62.379,41.642H45.794c-0.265,0-0.52-0.105-0.707-0.293l-1.121-1.121
		c-0.375-0.375-0.884-0.586-1.414-0.586H37.38c-1.105,0-2,0.895-2,2v3.959l29-0.046v-1.914
		C64.379,42.537,63.484,41.642,62.379,41.642z"/>
</g>
<g>
	<path style="fill:#218AF2;" d="M64.377,55.025v4.264c0,1.296-0.89,2.356-2,2.356h-25c-1.1,0-2-1.06-2-2.356v-4.264H64.377z"/>
</g>
<g>
	<path style="fill:#1FB0F7;" d="M64.073,50.025v6.041c0,0.552-0.448,1-1,1H36.681c-0.552,0-1-0.448-1-1v-6.041H64.073z"/>
</g>
<g>
	<path style="fill:#1DC4FA;" d="M64.011,45.513v4.513c0,0.552-0.448,1-1,1H36.742c-0.552,0-1-0.448-1-1v-4.513H64.011z"/>
</g>
<g>
	<path style="fill:#FCFCFC;" d="M37.38,45.189v-0.547c0-0.55,0.45-1,1-1h22.986c0.55,0,1,0.45,1,1v0.663L37.38,45.189z"/>
</g>
<g>
	<path style="fill:#472B29;" d="M62.366,45.68c-0.207,0-0.375-0.168-0.375-0.375v-0.663c0-0.345-0.28-0.625-0.625-0.625H38.38
		c-0.345,0-0.625,0.28-0.625,0.625v0.547c0,0.207-0.168,0.375-0.375,0.375s-0.375-0.168-0.375-0.375v-0.547
		c0-0.758,0.617-1.375,1.375-1.375h22.986c0.758,0,1.375,0.617,1.375,1.375v0.663C62.741,45.512,62.573,45.68,62.366,45.68z"/>
</g>
<g>
	<path style="fill:#472B29;" d="M64.379,45.778h-29c-0.207,0-0.375-0.168-0.375-0.375s0.168-0.375,0.375-0.375h29
		c0.207,0,0.375,0.168,0.375,0.375S64.586,45.778,64.379,45.778z"/>
</g>
<g>
	<path style="fill:#472B29;" d="M62.379,62.015h-25c-1.31,0-2.375-1.065-2.375-2.375V41.642c0-1.31,1.065-2.375,2.375-2.375h5.171
		c0.636,0,1.232,0.247,1.68,0.696l1.121,1.12c0.116,0.117,0.277,0.184,0.442,0.184h16.585c1.31,0,2.375,1.065,2.375,2.375V59.64
		C64.754,60.95,63.689,62.015,62.379,62.015z M37.38,40.017c-0.896,0-1.625,0.729-1.625,1.625V59.64
		c0,0.896,0.729,1.625,1.625,1.625h25c0.896,0,1.625-0.729,1.625-1.625V43.642c0-0.896-0.729-1.625-1.625-1.625H45.794
		c-0.367,0-0.712-0.143-0.972-0.402L43.7,40.494c-0.306-0.308-0.714-0.477-1.149-0.477H37.38z"/>
</g>
</svg>